<?xml version="1.0" standalone="no"?>
<!DOCTYPE svg PUBLIC "-//W3C//DTD SVG 20010904//EN"
 "http://www.w3.org/TR/2001/REC-SVG-20010904/DTD/svg10.dtd">
<svg version="1.0" xmlns="http://www.w3.org/2000/svg"
 width="1000pt" height="550pt" viewBox="120 110 1800 200"
 style="background-color: #e8e8f4">
<style>
    .green {
        fill: #00816d;
        stroke: #00816d;
    }
    .blue {
        fill: #171c8f;
        stroke: #171c8f;
    }
</style>
<g transform="translate(-175,950) scale(0.1,-0.1)">
<path class="green" id="capital-A" d="M9053 12293 l-42 -4 -31 -77 c-18 -42 -39 -93 -47 -112 -8 -19 -19
-44 -23 -55 -4 -11 -15 -36 -23 -55 -9 -19 -39 -93 -67 -165 -28 -71 -58 -146
-67 -165 -8 -19 -19 -44 -23 -55 -4 -11 -15 -36 -23 -55 -8 -19 -48 -116 -87
-215 -40 -99 -83 -204 -96 -233 -13 -29 -24 -58 -24 -65 0 -7 -4 -17 -8 -22
-5 -6 -28 -59 -52 -120 -24 -60 -47 -114 -52 -120 -4 -5 -8 -15 -8 -22 0 -7
-9 -35 -21 -61 -12 -26 -25 -56 -29 -67 -4 -11 -15 -36 -23 -55 -9 -19 -39
-93 -67 -165 -28 -71 -58 -146 -67 -165 -8 -19 -19 -44 -23 -55 -4 -11 -15
-36 -23 -55 -8 -19 -32 -78 -53 -130 -20 -52 -41 -99 -45 -104 -5 -6 -9 -16
-9 -23 0 -7 -9 -35 -21 -61 -12 -26 -25 -56 -29 -67 -4 -11 -15 -36 -23 -55
-8 -19 -32 -78 -53 -130 -20 -52 -41 -99 -45 -104 -5 -6 -9 -16 -9 -23 0 -7
-13 -42 -30 -78 -16 -36 -30 -71 -30 -78 0 -7 -4 -17 -8 -23 -5 -5 -28 -58
-52 -119 -24 -60 -47 -114 -52 -120 -4 -5 -8 -15 -8 -22 0 -7 -13 -42 -30 -78
-16 -36 -30 -69 -30 -73 0 -14 -39 -90 -50 -97 -13 -8 -166 58 -265 115 -172
99 -358 268 -429 390 -81 139 -115 265 -122 464 -9 229 8 342 73 485 31 66
155 193 228 233 64 34 182 73 265 86 162 27 200 32 246 32 l48 0 -35 36 c-96
101 -224 176 -354 209 -130 32 -176 37 -302 32 -162 -8 -257 -25 -398 -72
-158 -53 -253 -114 -376 -242 -115 -119 -189 -248 -230 -403 -64 -243 -44
-572 50 -805 18 -45 91 -184 114 -217 162 -240 410 -420 849 -617 26 -11 52
-21 58 -21 6 0 18 -4 28 -10 18 -10 213 -75 327 -108 112 -33 288 -73 395 -92
36 -6 88 -15 115 -20 28 -5 61 -11 75 -14 25 -4 196 -39 280 -58 63 -14 167
-39 240 -58 19 -5 53 -13 75 -19 22 -5 76 -19 120 -31 44 -12 96 -25 115 -30
54 -12 480 -150 525 -170 11 -4 63 -25 115 -45 52 -20 111 -44 130 -52 19 -8
44 -19 55 -23 146 -59 454 -229 565 -313 76 -57 210 -176 252 -223 103 -116
121 -141 172 -246 57 -115 80 -226 73 -348 -6 -91 -45 -174 -121 -257 -110
-121 -228 -183 -391 -206 -18 -2 -20 -10 -20 -77 l0 -75 1313 -3 1313 -2 -3
77 -3 78 -67 7 c-278 27 -576 240 -805 573 -42 61 -111 190 -137 255 -10 25
-24 61 -33 80 -8 19 -19 45 -24 58 -5 12 -13 32 -18 45 -5 12 -16 38 -24 57
-9 19 -39 94 -67 165 -28 72 -58 146 -67 165 -8 19 -19 44 -23 55 -4 11 -17
41 -29 67 -12 26 -21 52 -21 56 0 5 -6 22 -14 38 -8 16 -38 88 -66 159 -28 72
-58 146 -67 165 -8 19 -19 44 -23 55 -4 11 -17 41 -29 67 -12 26 -21 54 -21
61 0 7 -4 17 -8 22 -5 6 -28 60 -52 120 -24 61 -47 114 -52 120 -4 5 -8 15 -8
22 0 7 -9 35 -21 61 -12 26 -25 56 -29 67 -4 11 -15 36 -23 55 -9 19 -39 94
-67 165 -28 72 -58 146 -67 165 -8 19 -19 44 -23 55 -4 11 -15 36 -23 55 -8
19 -48 116 -87 215 -40 99 -83 204 -96 233 -13 29 -24 58 -24 65 0 7 -4 17 -9
23 -4 5 -36 81 -71 169 -35 88 -67 164 -71 169 -5 6 -9 16 -9 23 0 7 -11 36
-24 65 -13 29 -56 134 -96 233 -39 99 -78 193 -86 209 -8 16 -14 33 -14 38 0
4 -9 30 -21 56 -12 26 -25 56 -29 67 -4 11 -15 36 -23 55 -9 19 -39 94 -67
165 -28 72 -58 146 -67 165 -8 19 -19 44 -23 55 -4 11 -17 41 -29 67 -12 26
-21 52 -21 56 0 5 -6 22 -14 38 -8 16 -38 88 -66 159 -28 72 -58 146 -67 165
-8 19 -19 44 -23 55 -4 11 -17 41 -29 67 -12 26 -21 52 -21 56 0 5 -6 22 -14
38 -8 16 -38 88 -66 159 -56 141 -77 191 -91 217 -5 10 -9 24 -9 31 0 11 -29
15 -122 20 -122 7 -288 7 -365 0z m-129 -1255 c10 -24 22 -54 28 -68 14 -34
29 -71 38 -95 10 -28 24 -62 49 -117 12 -26 21 -52 21 -56 0 -5 6 -22 14 -38
15 -32 44 -99 56 -129 4 -11 13 -33 20 -50 7 -16 16 -39 20 -50 8 -22 21 -55
39 -97 6 -16 15 -38 20 -50 5 -13 18 -44 30 -70 12 -26 21 -52 21 -56 0 -5 6
-22 14 -38 21 -43 61 -139 76 -179 4 -11 13 -33 20 -50 7 -16 17 -41 23 -55 5
-14 14 -36 20 -50 5 -14 13 -34 17 -45 5 -11 17 -41 29 -67 12 -26 21 -52 21
-56 0 -5 6 -22 14 -38 15 -32 44 -99 56 -129 4 -11 12 -32 19 -47 6 -16 16
-40 22 -55 7 -16 15 -37 19 -48 5 -11 15 -36 23 -55 9 -19 25 -60 37 -90 12
-30 28 -71 37 -90 8 -19 19 -45 24 -57 5 -13 14 -35 20 -50 7 -16 16 -38 20
-50 17 -45 27 -69 48 -115 12 -26 21 -52 21 -56 0 -5 6 -22 14 -38 15 -32 44
-99 56 -129 4 -11 13 -33 20 -50 14 -33 29 -70 40 -100 5 -11 15 -36 23 -55 9
-19 25 -60 37 -90 12 -30 28 -71 37 -90 8 -19 18 -44 23 -55 12 -31 26 -66 49
-117 12 -26 21 -51 21 -56 0 -5 9 -27 20 -50 11 -22 20 -46 20 -52 0 -5 4 -18
9 -28 8 -16 17 -36 41 -97 6 -14 14 -35 19 -47 6 -13 13 -33 16 -45 11 -41
-29 -26 -112 40 -79 64 -201 149 -267 187 -20 11 -53 30 -73 41 -21 12 -85 45
-143 74 -98 49 -136 66 -217 101 -18 8 -49 21 -68 29 -19 8 -51 22 -70 30
-145 62 -144 62 -190 76 -22 7 -44 16 -50 19 -5 4 -30 13 -55 20 -25 7 -49 16
-55 20 -5 4 -30 13 -55 20 -25 7 -49 16 -55 20 -5 4 -30 12 -55 19 -25 7 -56
17 -70 21 -14 4 -45 13 -70 20 -25 6 -53 16 -62 21 -10 5 -27 9 -38 9 -11 0
-28 4 -38 9 -9 5 -37 15 -62 21 -25 7 -56 16 -70 20 -14 4 -45 13 -70 20 -25
7 -55 16 -68 21 -13 5 -34 9 -47 9 -13 0 -27 5 -30 10 -3 6 -17 10 -30 10 -13
0 -34 4 -47 9 -21 8 -39 13 -150 42 -82 21 -108 37 -108 64 0 14 4 33 9 43 9
18 16 35 60 145 5 12 16 38 24 57 9 19 25 60 37 90 12 30 28 71 37 90 18 42
33 77 44 108 5 12 14 34 20 50 7 15 15 36 19 47 5 11 15 37 24 58 9 20 23 54
32 75 17 38 28 66 43 105 4 12 13 34 20 50 6 15 15 37 20 50 5 12 18 43 30 69
12 26 21 52 21 58 0 6 4 18 10 28 17 32 50 106 50 114 0 5 9 30 21 56 12 26
25 57 30 70 5 12 13 32 18 45 5 12 17 40 26 62 27 63 46 108 56 133 5 12 13
32 18 45 15 38 43 101 57 131 8 16 14 33 14 38 0 4 10 30 21 56 12 26 28 62
35 80 8 17 21 49 30 70 9 20 20 47 25 60 5 12 13 32 18 45 5 12 16 39 25 60 9
20 23 54 32 75 9 20 19 46 24 57 25 67 54 115 70 115 3 0 14 -19 24 -42z"/>
    <path class="blue" id="capital-A-bottom-left" d="M7303 8138 c-5 -7 -18 -33 -27 -58 -10 -25 -24 -61 -33 -80 -20 -47
-34 -81 -43 -105 -4 -11 -13 -33 -20 -50 -7 -16 -16 -39 -20 -50 -9 -24 -23
-58 -43 -105 -9 -19 -34 -82 -57 -140 -23 -58 -48 -121 -57 -140 -20 -47 -34
-81 -43 -105 -4 -11 -13 -33 -20 -50 -7 -16 -16 -39 -20 -50 -5 -11 -17 -41
-29 -67 -12 -26 -21 -54 -21 -61 0 -7 -4 -17 -8 -22 -5 -6 -20 -37 -33 -70
-129 -330 -399 -642 -661 -769 -85 -41 -162 -63 -258 -74 l-55 -7 0 -85 0 -85
874 -3 c693 -2 876 0 883 10 11 19 10 126 -2 149 -8 13 -21 19 -47 19 -95 0
-225 63 -318 155 -82 81 -121 152 -141 258 -14 72 -6 176 17 219 5 10 9 22 9
27 0 6 20 52 44 103 25 51 54 118 66 148 12 30 28 71 37 90 18 42 33 77 44
108 17 44 27 68 48 114 12 26 21 51 21 56 0 5 9 27 20 50 11 22 20 47 20 55 0
7 4 17 8 23 5 5 17 29 26 54 10 25 24 61 33 80 8 19 19 44 23 55 4 11 17 41
29 67 12 26 21 50 21 53 0 6 57 135 70 157 26 45 8 56 -170 98 -31 7 -68 17
-136 35 -12 3 -26 0 -31 -7z"/>
</g>
<g transform="translate(-175,960) scale(0.1,-0.102)">
    <path class="green" id="big-P" d="M13140 12045 c0 -84 0 -85 28 -90 27 -6 63 -15 140 -34 95 -24 128
-34 147 -41 11 -4 36 -14 55 -21 89 -32 206 -140 256 -236 29 -54 36 -76 63
-179 8 -29 11 -741 11 -2390 0 -2018 -2 -2359 -15 -2419 -33 -160 -153 -315
-300 -386 -45 -21 -90 -39 -100 -39 -10 0 -32 -4 -49 -9 -17 -5 -50 -14 -73
-20 -53 -14 -111 -28 -140 -36 -22 -6 -23 -12 -23 -91 l0 -84 1220 0 1220 0 0
85 c0 84 0 85 -27 90 -16 3 -46 11 -68 16 -54 14 -112 29 -155 39 -123 29
-163 48 -248 112 -78 60 -152 174 -185 285 -8 27 -12 299 -12 938 l0 900 1095
5 c773 4 1113 9 1155 17 33 7 92 17 130 24 68 11 138 28 200 47 26 8 51 18
140 51 64 25 242 117 307 160 155 101 326 256 447 406 185 229 324 542 369
830 28 177 31 258 16 420 -17 188 -19 204 -46 315 -46 194 -149 438 -241 575
-329 487 -823 781 -1401 835 -69 6 -811 10 -2013 10 l-1903 0 0 -85z m3545
-273 c28 -6 70 -15 95 -20 52 -11 60 -13 158 -53 144 -59 333 -189 437 -301
122 -130 234 -321 282 -483 62 -204 65 -239 60 -675 -4 -364 -9 -440 -37 -535
-6 -22 -14 -52 -17 -68 -3 -15 -9 -30 -14 -33 -5 -3 -9 -12 -9 -20 0 -13 -50
-118 -92 -194 -72 -131 -203 -275 -348 -381 -77 -56 -270 -159 -300 -159 -9 0
-20 -4 -25 -8 -15 -13 -125 -42 -231 -61 -40 -7 -338 -11 -906 -11 -703 0
-847 2 -857 14 -13 16 -11 2973 2 2994 11 17 1725 11 1802 -6z"/>
</g>
    <text class="green" x="225" y="525" fill="white" font-family="Arial" font-size="200px" font-weight="bold" letter-spacing="50">APARTMANI</text>
    <text class="green" x="150" y="690" fill="white" font-family="Arial" font-size="200px" font-weight="lighter" letter-spacing="200">PERICA</text>
</svg>
